<?xml version="1.0" encoding="iso-8859-1"?>
<!-- Generator: Adobe Illustrator 19.0.0, SVG Export Plug-In . SVG Version: 6.00 Build 0)  -->
<svg id="Capa_1" style="enable-background:new 0 0 480 480;" version="1.1" viewBox="0 0 480 480" x="0px"
     xml:space="preserve" xmlns="http://www.w3.org/2000/svg" y="0px">
<g>
	<g>
		<g>
			<rect height="16" width="16" x="48" y="276"/>
      <rect height="16" width="16" x="80" y="276"/>
      <rect height="16" width="16" x="112" y="276"/>
      <rect height="16" width="16" x="144" y="276"/>
      <rect height="16" width="16" x="176" y="276"/>
      <rect height="16" width="16" x="208" y="276"/>
      <path d="M400,380h48c4.418,0,8-3.582,8-8v-16h16c4.418,0,8-3.582,8-8v-80c-0.042-10.134-6.445-19.15-16-22.528V92
				c0-13.255-10.745-24-24-24s-24,10.745-24,24v152H72V92c0-13.255-10.745-24-24-24S24,78.745,24,92v152c-13.255,0-24,10.745-24,24
				v80c0,4.418,3.582,8,8,8h16v16c0,4.418,3.582,8,8,8h48c4.418,0,8-3.582,8-8v-16h144v17.136
				c-11.202,2.913-19.951,11.662-22.864,22.864H0v16h209.136c4.339,17.046,21.674,27.347,38.719,23.009
				c11.304-2.877,20.131-11.704,23.009-23.009H480v-16H270.864c-2.913-11.202-11.662-19.951-22.864-22.864V356h144v16
				C392,376.418,395.582,380,400,380z M440,364h-32v-8h32V364z M432,92c0-4.418,3.582-8,8-8s8,3.582,8,8v152h-16V92z M40,92
				c0-4.418,3.582-8,8-8s8,3.582,8,8v152H40V92z M72,364H40v-8h32V364z M256,404c0,8.837-7.163,16-16,16s-16-7.163-16-16
				s7.163-16,16-16S256,395.163,256,404z M16,340v-72c0-4.418,3.582-8,8-8h432c4.418,0,8,3.582,8,8v72H16z"/>
      <rect height="16" width="16" x="424" y="420"/>
      <rect height="16" width="16" x="392" y="420"/>
      <rect height="16" width="16" x="360" y="420"/>
      <rect height="16" width="16" x="328" y="420"/>
      <rect height="16" width="16" x="296" y="420"/>
      <rect height="16" width="16" x="40" y="420"/>
      <rect height="16" width="16" x="72" y="420"/>
      <rect height="16" width="16" x="104" y="420"/>
      <rect height="16" width="16" x="136" y="420"/>
      <rect height="16" width="16" x="168" y="420"/>
      <path d="M126.936,106.936c62.249-62.443,163.333-62.601,225.776-0.352c0.117,0.117,0.235,0.234,0.352,0.352
				c3.07,3.178,8.134,3.266,11.312,0.196c3.178-3.07,3.266-8.134,0.196-11.312c-0.064-0.067-0.13-0.132-0.196-0.196
				c-68.492-68.691-179.701-68.852-248.392-0.36c-0.12,0.12-0.24,0.24-0.36,0.36c-3.069,3.178-2.981,8.243,0.197,11.312
				C118.921,109.93,123.836,109.93,126.936,106.936z"/>
      <path d="M319.144,140.856c1.496,1.506,3.533,2.35,5.656,2.344c4.418-0.001,7.999-3.583,7.998-8.002
				c0-2.121-0.843-4.155-2.342-5.654c-49.817-49.958-130.7-50.072-180.657-0.255c-0.085,0.085-0.17,0.17-0.255,0.255
				c-3.069,3.178-2.981,8.243,0.197,11.312c3.1,2.994,8.015,2.994,11.115,0c43.574-43.71,114.331-43.821,158.041-0.247
				C318.979,140.691,319.062,140.773,319.144,140.856z"/>
      <path d="M285.192,174.76c1.505,1.514,3.553,2.364,5.688,2.36c4.418-0.001,7.999-3.583,7.998-8.002
				c0-2.113-0.837-4.14-2.326-5.638c-31.126-31.233-81.678-31.319-112.911-0.193c-0.065,0.064-0.129,0.129-0.193,0.193
				c-3.061,3.186-2.96,8.25,0.226,11.311c3.109,2.987,8.026,2.973,11.118-0.031c24.905-24.963,65.331-25.01,90.295-0.105
				C285.122,174.69,285.157,174.725,285.192,174.76z"/>
      <circle cx="240" cy="204" r="16"/>
		</g>
	</g>
</g>
  <g>
</g>
  <g>
</g>
  <g>
</g>
  <g>
</g>
  <g>
</g>
  <g>
</g>
  <g>
</g>
  <g>
</g>
  <g>
</g>
  <g>
</g>
  <g>
</g>
  <g>
</g>
  <g>
</g>
  <g>
</g>
  <g>
</g>
</svg>
