<svg height="511pt" viewBox="0 0 511 511.9998" width="511pt" xmlns="http://www.w3.org/2000/svg">
  <path
    d="m407.890625 482h-18.605469c-3.253906-12.417969-83.695312-319.523438-84.507812-322.621094 30.390625-39.363281 2.015625-96.515625-47.792969-96.515625-49.902344 0-78.105469 57.246094-47.792969 96.515625-.820312 3.132813-81.25 310.207032-84.503906 322.621094h-18.605469c-8.28125 0-14.996093 6.714844-14.996093 15s6.710937 15 14.996093 15h301.808594c8.28125 0 14.996094-6.714844 14.996094-15s-6.714844-15-14.996094-15zm-80.058594-116.238281 14.746094 56.300781-55.808594-32.421875zm-17.394531-66.40625-30.742188-27.09375 19.207032-16.949219zm-53.453125-206.492188c16.695313 0 30.277344 13.464844 30.277344 30.015625 0 16.550782-13.582031 30.015625-30.277344 30.015625-16.691406 0-30.273437-13.464843-30.273437-30.015625 0-16.550781 13.582031-30.015625 30.273437-30.015625zm-21.867187 85.921875c13.894531 5.410156 29.488281 5.546875 43.738281 0l11.535156 44.035156-33.378906 29.453126-33.425781-29.457032zm-20.042969 76.515625 19.265625 16.976563-30.839844 27.210937zm41.949219 36.964844 54.667968 48.179687-54.777344 31.855469-54.632812-31.734375zm-70.910157 73.597656 40.960938 23.792969-55.675781 32.378906zm-30.417969 116.136719 4.984376-19.027344 96.246093-55.972656 96.371094 55.980469 4.980469 19.019531zm0 0"/>
  <path
    d="m106.105469 191.988281c-20.292969-43.683593-20.316407-94.480469 0-138.21875 3.492187-7.511719.234375-16.429687-7.277344-19.921875-7.511719-3.492187-16.429687-.230468-19.917969 7.28125-24.019531 51.695313-24.054687 111.730469 0 163.5 2.539063 5.46875 7.953125 8.683594 13.605469 8.683594 10.894531 0 18.222656-11.359375 13.589844-21.324219zm0 0"/>
  <path
    d="m48.007812 1.621094c-7.386718-3.742188-16.410156-.789063-20.15625 6.601562-36.457031 71.945313-36.480468 157.316406 0 229.316406 3.746094 7.390626 12.773438 10.339844 20.15625 6.597657 7.390626-3.746094 10.34375-12.769531 6.597657-20.160157-32.132813-63.410156-32.15625-138.734374 0-202.191406 3.746093-7.390625.792969-16.417968-6.597657-20.164062zm0 0"/>
  <path
    d="m149.515625 179.640625c7.734375-2.96875 11.597656-11.644531 8.632813-19.378906-8.921876-23.257813-9.457032-50.105469 0-74.765625 2.964843-7.734375-.898438-16.410156-8.632813-19.378906-7.738281-2.964844-16.40625.898437-19.371094 8.632812-11.832031 30.851562-11.859375 65.332031 0 96.253906 2.964844 7.742188 11.644531 11.601563 19.371094 8.636719zm0 0"/>
  <path
    d="m415.144531 33.847656c-7.511719 3.492188-10.769531 12.410156-7.28125 19.925782 20.296875 43.679687 20.320313 94.480468 0 138.210937-3.488281 7.515625-.230469 16.433594 7.28125 19.925781 7.511719 3.496094 16.429688.226563 19.917969-7.28125 24.019531-51.691406 24.054688-111.734375 0-163.5-3.492188-7.511718-12.40625-10.773437-19.917969-7.28125zm0 0"/>
  <path
    d="m485.117188 8.222656c-3.742188-7.390625-12.769532-10.34375-20.15625-6.601562-7.386719 3.746094-10.339844 12.773437-6.597657 20.164062 33.664063 66.433594 30.3125 144.347656 1.003907 202.1875-3.746094 7.390625-.792969 16.417969 6.597656 20.164063 7.382812 3.742187 16.410156.792969 20.15625-6.601563 33.222656-65.570312 37.410156-153.507812-1.003906-229.3125zm0 0"/>
  <path
    d="m364.457031 179.640625c7.738281 2.964844 16.40625-.902344 19.371094-8.636719 11.496094-29.976562 12.191406-64.464844 0-96.253906-2.964844-7.734375-11.640625-11.597656-19.371094-8.632812-7.734375 2.96875-11.597656 11.644531-8.632812 19.378906 9.183593 23.945312 9.203125 50.769531 0 74.765625-2.964844 7.734375.898437 16.410156 8.632812 19.378906zm0 0"/>
</svg>
